<?xml version="1.0" encoding="utf-8"?><!DOCTYPE svg PUBLIC "-//W3C//DTD SVG 1.1//EN" "http://www.w3.org/Graphics/SVG/1.1/DTD/svg11.dtd"><svg viewBox="0 0 800 800" xmlns="http://www.w3.org/2000/svg" xmlns:xlink="http://www.w3.org/1999/xlink"><style>:root>svg{display:none}:root>svg:target{display:block}</style><svg fill="none" viewBox="0 0 25 24" id="arrow" xmlns="http://www.w3.org/2000/svg"><g clip-path="url(#aaclip0_1_19728)"><path d="M5.5 12h14M15.5 16l4-4M15.5 8l4 4"/></g><defs><clipPath id="aaclip0_1_19728"><path fill="#fff" transform="translate(.5)" d="M0 0h24v24H0z"/></clipPath></defs></svg><svg data-name="Layer 1" viewBox="0 0 24 24" id="arrow-right" xmlns="http://www.w3.org/2000/svg"><path d="M18.541 10.894l-4.717-4.717-.707.707 4.616 4.617H5v1h12.735l-4.618 4.617.707.707 4.717-4.716c.296-.296.459-.69.459-1.108s-.163-.812-.459-1.106z"/></svg><svg fill="none" viewBox="0 0 24 24" id="arrow2" xmlns="http://www.w3.org/2000/svg"><g clip-path="url(#acclip0_1_32053)"><path d="M18 9l-6 6-6-6" stroke="#212121" stroke-width="2" stroke-linecap="round" stroke-linejoin="round"/></g><defs><clipPath id="acclip0_1_32053"><path fill="#fff" transform="rotate(90 12 12)" d="M0 0h24v24H0z"/></clipPath></defs></svg><svg fill="none" viewBox="0 0 24 24" id="arrow2-str" xmlns="http://www.w3.org/2000/svg"><g clip-path="url(#adclip0_1_32053)"><path d="M18 9l-6 6-6-6"/></g><defs><clipPath id="adclip0_1_32053"><path fill="#fff" transform="rotate(90 12 12)" d="M0 0h24v24H0z"/></clipPath></defs></svg><svg viewBox="0 0 25 25" id="attention" xmlns="http://www.w3.org/2000/svg"><g fill-rule="evenodd" clip-rule="evenodd"><path d="M8.673 3.261a10 10 0 117.654 18.478A10 10 0 018.673 3.261zM12.5 4.5a8 8 0 100 16 8 8 0 000-16z"/><path d="M12.5 8.5a1 1 0 011 1v4a1 1 0 11-2 0v-4a1 1 0 011-1zM12.5 15.5a1 1 0 011 1v.01a1 1 0 11-2 0v-.01a1 1 0 011-1z"/></g></svg><svg fill="none" viewBox="0 0 61 60" id="bar" xmlns="http://www.w3.org/2000/svg"><circle cx="30.695" cy="30" r="25.5" stroke="#A5C9FF" stroke-width="7"/></svg><svg data-name="Layer 1" viewBox="0 0 24 24" id="bars" xmlns="http://www.w3.org/2000/svg"><path d="M24 3.5c0 .83-.67 1.5-1.5 1.5h-21C.67 5 0 4.33 0 3.5S.67 2 1.5 2h21c.83 0 1.5.67 1.5 1.5zM14.5 20h-5c-.83 0-1.5.67-1.5 1.5S8.67 23 9.5 23h5c.83 0 1.5-.67 1.5-1.5s-.67-1.5-1.5-1.5zm4-9h-13c-.83 0-1.5.67-1.5 1.5S4.67 14 5.5 14h13c.83 0 1.5-.67 1.5-1.5s-.67-1.5-1.5-1.5z"/></svg><svg fill="none" viewBox="0 0 24 24" id="brands" xmlns="http://www.w3.org/2000/svg"><g clip-path="url(#ahclip0_3340_200141)" stroke="#000" stroke-width="2" stroke-linecap="round" stroke-linejoin="round"><path d="M6.5 7.5a1 1 0 102 0 1 1 0 00-2 0z"/><path d="M3 6v5.172a2 2 0 00.586 1.414l7.71 7.71a2.41 2.41 0 003.408 0l5.592-5.592a2.41 2.41 0 000-3.408l-7.71-7.71A2 2 0 0011.172 3H6a3 3 0 00-3 3z"/></g><defs><clipPath id="ahclip0_3340_200141"><path fill="#fff" d="M0 0h24v24H0z"/></clipPath></defs></svg><svg fill="none" viewBox="0 0 24 24" id="category" xmlns="http://www.w3.org/2000/svg"><g clip-path="url(#aiclip0_5001_33480)" stroke="#000" stroke-width="2" stroke-linecap="round" stroke-linejoin="round"><path d="M4 4h6v6H4V4zM14 4h6v6h-6V4zM4 14h6v6H4v-6zM14 17a3 3 0 106 0 3 3 0 00-6 0z"/></g><defs><clipPath id="aiclip0_5001_33480"><path fill="#fff" d="M0 0h24v24H0z"/></clipPath></defs></svg><svg fill="none" viewBox="0 0 32 33" id="chart-down" xmlns="http://www.w3.org/2000/svg"><path d="M15.502 9.49a.935.935 0 011.325 0l4.952 4.954L26.73 9.49a.937.937 0 111.325 1.325L22.44 16.43a.937.937 0 01-1.325 0l-4.951-4.954-8.97 8.97h4.291a.936.936 0 010 1.871h-6.55A.936.936 0 014 21.381v-6.55a.936.936 0 011.872 0v4.292l9.63-9.633z" fill="#E13B3B"/></svg><svg fill="none" viewBox="0 0 32 33" id="chart-up" xmlns="http://www.w3.org/2000/svg"><path d="M19.909 10.151a.936.936 0 01.935-.936h6.55a.936.936 0 01.936.936v6.55a.936.936 0 01-1.871 0V12.41l-9.63 9.632a.935.935 0 01-1.326 0l-4.952-4.954L5.6 22.043a.937.937 0 01-1.325-1.325l5.615-5.614a.935.935 0 011.325 0l4.952 4.954 8.97-8.97h-4.292a.935.935 0 01-.936-.936z" fill="#7DD248"/></svg><svg viewBox="0 0 24 24" fill="none" id="check" xmlns="http://www.w3.org/2000/svg"><path d="M4 12.611L8.923 17.5 20 6.5" stroke="#000" stroke-width="2" stroke-linecap="round" stroke-linejoin="round"/></svg><svg fill="none" viewBox="0 0 20 20" id="checkbox" xmlns="http://www.w3.org/2000/svg"><path d="M16.333 0c1.96 0 3.56 1.537 3.662 3.472l.005.195v12.666c0 1.96-1.537 3.56-3.472 3.662l-.195.005H3.667a3.667 3.667 0 01-3.662-3.472L0 16.333V3.667C0 1.707 1.537.107 3.472.005L3.667 0h12.666zm-2.626 7.293a1 1 0 00-1.414 0L9 10.585 7.707 9.293l-.094-.083a1 1 0 00-1.32 1.497l2 2 .094.083a1 1 0 001.32-.083l4-4 .083-.094a1 1 0 00-.083-1.32z" fill="#1890FF"/></svg><svg viewBox="0 0 417.065 417.065" id="checked" xmlns="http://www.w3.org/2000/svg"><path d="M401.56 47.087c-17.452-14.176-42.561-12.128-56.095 4.536L167.042 271.598 73.913 150.58c-13.892-18.037-39.781-21.411-57.819-7.535-18.054 13.884-21.427 39.781-7.535 57.843L133.56 363.321c13.892 18.037 39.789 21.419 57.835 7.535 5.145-3.959 8.95-8.958 11.648-14.42l205.645-253.514c13.527-16.688 10.332-41.675-7.128-55.835z" fill="#010002"/></svg><svg viewBox="0 0 126 126" fill="none" id="circle" xmlns="http://www.w3.org/2000/svg"><path clip-rule="evenodd" d="M3 63C3 29.863 29.863 3 63 3s60 26.863 60 60-26.863 60-60 60S3 96.137 3 63z"/></svg><svg viewBox="0 0 24 24" id="close" xmlns="http://www.w3.org/2000/svg"><path fill-rule="evenodd" clip-rule="evenodd" d="M19.207 6.207a1 1 0 00-1.414-1.414L12 10.586 6.207 4.793a1 1 0 00-1.414 1.414L10.586 12l-5.793 5.793a1 1 0 101.414 1.414L12 13.414l5.793 5.793a1 1 0 001.414-1.414L13.414 12l5.793-5.793z"/></svg><svg viewBox="0 0 512 512.001" id="clothes" xmlns="http://www.w3.org/2000/svg"><path d="M509.86 303.723C503.171 183.48 481.276 95.78 444.772 43.059c-.023-.036-.05-.063-.074-.098a9.084 9.084 0 00-.515-.645c-.028-.027-.051-.058-.075-.086a7.759 7.759 0 00-.664-.628c-.066-.055-.133-.106-.199-.157a7.247 7.247 0 00-.559-.402c-.074-.047-.148-.098-.226-.145a8.025 8.025 0 00-.77-.406.158.158 0 00-.035-.02 7.42 7.42 0 00-.71-.273L322.362 1.27c-9.156-3.003-19.031-.59-25.777 6.297l-40.61 41.493-40.613-41.493c-6.738-6.886-16.617-9.3-25.773-6.296l-34.102 11.195c-3.937 1.293-6.082 5.531-4.789 9.469s5.531 6.082 9.469 4.789L194.27 15.53a10.039 10.039 0 0110.367 2.531l43.75 44.7-.067 198.761H188.22a12.746 12.746 0 00-12.703 11.407c-4.829 45.011-39.254 73.937-59.11 87.054V143.84c0-.883-.156-1.762-.46-2.594L83.073 52.031l33.356-10.949c3.937-1.289 6.082-5.531 4.789-9.469s-5.532-6.082-9.469-4.789L71.008 40.2c-.242.082-.48.172-.711.274-.02.007-.035.02-.055.027a7.643 7.643 0 00-.75.398c-.078.047-.156.098-.234.149a8.133 8.133 0 00-.547.394c-.07.055-.14.106-.207.164-.23.196-.453.403-.66.625-.028.032-.051.063-.078.094a7.933 7.933 0 00-.512.637c-.024.035-.05.062-.078.098C30.676 95.78 8.777 183.48 2.094 303.723c-5.125 92.203.543 173.746 2.402 196.543C5.031 506.844 10.625 512 17.234 512h46.75c6.008 0 11.27-4.27 12.508-10.148l24.906-118.317V499.22c0 7.047 5.735 12.781 12.782 12.781h283.59c7.046 0 12.78-5.734 12.78-12.781V383.535l24.907 118.317c1.238 5.882 6.5 10.148 12.508 10.148h46.75c6.61 0 12.203-5.152 12.738-11.734 1.86-22.797 7.531-104.34 2.406-196.543zm-408.462 6.964L62.18 496.993H19.29c-1.985-25.078-7.142-103.77-2.212-192.437 2.91-52.36 8.875-99.11 17.73-138.953 9.184-41.317 21.516-75.356 36.739-101.45l29.851 81.028zm16.344 66.196c58.578-34.328 70.18-83.09 72.453-100.356h57.899v169.668H117.742zm130.496 120.11H116.406v-35.79H248.25zm147.309 0H263.715l-.012-35.79h43.965a7.504 7.504 0 100-15.008h-43.809V276.527h57.899c2.273 17.266 13.875 66.028 72.453 100.356v69.312h-39.856a7.504 7.504 0 100 15.008h41.192zm.46-355.747a7.46 7.46 0 00-.464 2.594v216.242c-49.41-31.883-57.727-74.305-59.105-87.152a12.746 12.746 0 00-12.704-11.407h-60.101l-.067-198.761 43.747-44.7a10.043 10.043 0 0110.37-2.53l111.196 36.5zm96.657 355.746h-42.89L410.55 310.687V145.18l29.855-81.028c15.219 26.094 27.555 60.133 36.739 101.45 8.855 39.843 14.82 86.597 17.73 138.953 4.93 88.668-.23 167.36-2.21 192.437zm0 0"/></svg><svg viewBox="0 0 16 17" id="clothes2" xmlns="http://www.w3.org/2000/svg"><g clip-path="url(#arclip0_259_20052)"><path d="M15.076 12.18c-.21-.98-.43-1.993-.5-2.669-.034-.33-.052-.904-.072-1.57-.073-2.383-.175-4.405-.676-5.012-.071-.086-.173-.158-1.574-.76-.151-.066-.262-.113-.29-.127-.605-.295-1.026-.647-1.364-.93-.32-.269-.574-.481-.863-.544-.422-.09-3.052-.09-3.474 0-.289.063-.542.275-.863.543-.338.284-.758.636-1.364.93-.028.015-.139.062-.29.127-1.4.603-1.502.675-1.573.76-.502.607-.603 2.628-.676 5.01-.02.667-.039 1.243-.073 1.573-.07.676-.29 1.69-.5 2.668-.387 1.796-.543 2.618-.414 2.944.103.262.843.579 1.379.633a.272.272 0 00.055.177c.157.197 2.479.49 2.502.492.548.056 1.074.075 1.547.075.719 0 1.314-.044 1.675-.071.157-.012.324-.022.332-.022.007 0 .175.01.332.022.36.027.956.071 1.675.071.473 0 1-.02 1.547-.075.023-.002 2.345-.295 2.502-.492a.272.272 0 00.056-.178c.54-.053 1.275-.37 1.378-.632.129-.326-.027-1.148-.414-2.944zM10.043 1.36c.066.052.135.109.207.17.183.152.389.325.633.5.005.688-.392 2.74-1.365 3.864-.347.401-.738.647-1.165.745.158-.127.316-.323.483-.616.616-1.076 1.285-3.299 1.207-4.664zm-3.507-.278c.588-.05 2.34-.05 2.928 0 .024.117.038.252.042.4-.529.125-2.483.125-3.012 0 .004-.148.018-.283.042-.4zm-.58.277c-.077 1.365.592 3.588 1.208 4.664.167.293.325.489.483.616-.426-.098-.818-.344-1.165-.745-.972-1.124-1.37-3.176-1.365-3.865.244-.174.774-.617.84-.67zM1.01 14.89c-.042-.323.24-1.63.447-2.595.214-.993.435-2.02.509-2.726.037-.35.055-.936.075-1.614.045-1.451.118-3.81.444-4.517.166.18.367.433.415.543.316.728.346 1.46.377 2.236.015.359.076 1.132.076 1.146-.022.7-.26 4.092-.6 5.602-.003.015-.088.295-.137.433a42.87 42.87 0 00-.607 1.822c-.343-.003-.85-.223-.999-.33zm6.728.989l-.11.007c-.583.043-1.794.134-3.127-.003-.522-.053-1.555-.234-2.022-.326.122-.461.422-1.32.652-1.98.148-.421.576-1.676.722-2.054.288-.743.585-1.512.61-2.1.015-.348-.17-.83-.333-1.255-.079-.206-.16-.419-.18-.526-.09-.486-.109-.975-.128-1.447-.032-.792-.065-1.61-.422-2.432-.072-.164-.276-.43-.465-.641.336-.155 1.555-.704 1.658-.762.088.947.497 2.759 1.477 3.891.483.56 1.048.869 1.673.951.054 1.187.072 6.5-.005 8.677zM3.66 10.469c.058-.557.106-1.11.144-1.6.068.206.119.401.113.529-.012.294-.12.67-.257 1.071zM8 6.233c-.078-.06-.225-.221-.42-.585-.508-.943-.964-2.481-1.067-3.617.372.06.927.092 1.487.092s1.114-.032 1.487-.092c-.103 1.136-.56 2.674-1.067 3.617-.195.364-.342.525-.42.585zm3.499 9.65c-1.333.136-2.544.046-3.126.002l-.09-.006c.075-2.172.057-7.388.005-8.682C8.9 7.108 9.455 6.8 9.93 6.25c.98-1.132 1.388-2.943 1.476-3.891.103.058 1.334.612 1.662.758-.191.213-.397.48-.47.646-.356.822-.39 1.64-.42 2.432-.02.473-.04.961-.129 1.446-.019.107-.1.32-.18.526-.163.425-.348.907-.333 1.255.026.588.322 1.357.61 2.1.146.378.575 1.634.722 2.057.23.658.53 1.516.652 1.977-.467.092-1.5.273-2.022.326zm.84-5.415c-.138-.4-.244-.776-.257-1.07-.006-.128.045-.323.113-.529.038.49.086 1.042.144 1.6zm2.651 4.421c-.147.107-.653.329-.999.33a42.462 42.462 0 00-.607-1.82c-.049-.139-.134-.42-.137-.435-.34-1.51-.578-4.902-.6-5.602 0-.013.061-.785.076-1.145.03-.776.06-1.509.377-2.237.047-.108.24-.351.405-.53.338.768.41 3.077.454 4.508.02.676.038 1.26.075 1.61.073.705.295 1.733.509 2.726.208.967.49 2.277.447 2.595zm-8.602-2.693c-.358.01-1.795.01-2.44 0a.258.258 0 00-.2.083.273.273 0 00-.077.201c.013.292.136 1.11.553 1.39.207.14.567.198.932.198.404 0 .813-.07 1.034-.18.393-.194.518-1.316.48-1.472-.032-.124-.15-.23-.282-.22zm-.44 1.204c-.32.158-1.195.17-1.42.018-.112-.076-.222-.38-.277-.673.57.005 1.394.005 1.865 0-.039.248-.121.591-.167.655zm6.104-1.204c-.646.01-2.083.01-2.44 0-.12-.01-.25.096-.282.22-.038.155.087 1.278.48 1.472.22.11.63.18 1.034.18.365 0 .725-.058.933-.198.415-.28.54-1.097.552-1.389a.269.269 0 00-.077-.202.264.264 0 00-.2-.083zm-.58 1.222c-.224.152-1.1.14-1.387.005-.071-.08-.16-.428-.2-.677.473.004 1.294.004 1.865-.001-.055.294-.163.596-.278.673z"/></g><defs><clipPath id="arclip0_259_20052"><path fill="#fff" transform="translate(0 .5)" d="M0 0h16v16H0z"/></clipPath></defs></svg><svg fill="none" viewBox="0 0 24 24" id="color" xmlns="http://www.w3.org/2000/svg"><g clip-path="url(#asclip0_5001_35450)" stroke="#000" stroke-width="2" stroke-linecap="round" stroke-linejoin="round"><path d="M12 21a9 9 0 110-18c4.97 0 9 3.582 9 8 0 1.06-.474 2.078-1.318 2.828-.844.75-1.989 1.172-3.182 1.172H14a2 2 0 00-1 3.75A1.3 1.3 0 0112 21z"/><path d="M7.5 10.5a1 1 0 102 0 1 1 0 00-2 0zM11.5 7.5a1 1 0 102 0 1 1 0 00-2 0zM15.5 10.5a1 1 0 102 0 1 1 0 00-2 0z"/></g><defs><clipPath id="asclip0_5001_35450"><path fill="#fff" d="M0 0h24v24H0z"/></clipPath></defs></svg><svg fill="none" viewBox="0 0 24 24" id="dollar" xmlns="http://www.w3.org/2000/svg"><g clip-path="url(#atclip0_1_32065)" stroke="#212121" stroke-width="2" stroke-linecap="round" stroke-linejoin="round"><path d="M16.7 8A3 3 0 0014 6h-4a3 3 0 100 6h4a3 3 0 010 6h-4a3 3 0 01-2.7-2M12 3v3m0 12v3"/></g><defs><clipPath id="atclip0_1_32065"><path fill="#fff" d="M0 0h24v24H0z"/></clipPath></defs></svg><svg viewBox="0 0 24 24" fill="none" id="done" xmlns="http://www.w3.org/2000/svg"><path d="M4 12.611L8.923 17.5 20 6.5"/></svg><svg fill="none" viewBox="0 0 16 16" id="eye" xmlns="http://www.w3.org/2000/svg"><g clip-path="url(#avclip0_3022_88670)" stroke="#000" stroke-width="1.333" stroke-linecap="round" stroke-linejoin="round"><path d="M6.666 8a1.333 1.333 0 102.667 0 1.333 1.333 0 00-2.667 0z"/><path d="M14 8c-1.6 2.667-3.6 4-6 4s-4.4-1.333-6-4c1.6-2.667 3.6-4 6-4s4.4 1.333 6 4z"/></g><defs><clipPath id="avclip0_3022_88670"><path fill="#fff" d="M0 0h16v16H0z"/></clipPath></defs></svg><svg fill="none" viewBox="0 0 24 24" id="facebook" xmlns="http://www.w3.org/2000/svg"><g clip-path="url(#awclip0_1165_31554)"><path d="M7 10v4h3v7h4v-7h3l1-4h-4V8a1 1 0 011-1h3V3h-3a5 5 0 00-5 5v2H7z"/></g><defs><clipPath id="awclip0_1165_31554"><path fill="#fff" d="M0 0h24v24H0z"/></clipPath></defs></svg><svg fill="none" viewBox="0 0 24 24" id="facebook2" xmlns="http://www.w3.org/2000/svg"><g clip-path="url(#axclip0_5001_49137)"><path d="M7 10v4h3v7h4v-7h3l1-4h-4V8a1 1 0 011-1h3V3h-3a5 5 0 00-5 5v2H7z"/></g><defs><clipPath id="axclip0_5001_49137"><path fill="#fff" d="M0 0h24v24H0z"/></clipPath></defs></svg><svg viewBox="0 0 23 23" id="facebook_new" xmlns="http://www.w3.org/2000/svg"><path d="M20.5 11.09c0-5.06-4.107-9.167-9.167-9.167S2.167 6.03 2.167 11.09c0 4.437 3.153 8.13 7.333 8.983V13.84H7.667v-2.75H9.5V8.798c0-1.769 1.44-3.208 3.208-3.208H15v2.75h-1.833a.92.92 0 00-.917.917v1.833H15v2.75h-2.75v6.37a9.165 9.165 0 008.25-9.12z"/></svg><svg fill="none" viewBox="0 0 24 24" id="filter" xmlns="http://www.w3.org/2000/svg"><g clip-path="url(#azclip0_529_10556)"><path d="M4 4h16v2.172a2 2 0 01-.586 1.414L15 12v7l-6 2v-8.5L4.52 7.572A2 2 0 014 6.227V4z" stroke="#000" stroke-width="2" stroke-linecap="round" stroke-linejoin="round"/></g><defs><clipPath id="azclip0_529_10556"><path fill="#fff" d="M0 0h24v24H0z"/></clipPath></defs></svg><svg fill="none" viewBox="0 0 25 24" id="folder" xmlns="http://www.w3.org/2000/svg"><g clip-path="url(#baclip0_5001_48848)" stroke="#212121" stroke-width="2" stroke-linecap="round" stroke-linejoin="round"><path d="M4.5 6a2 2 0 012-2h12a2 2 0 012 2v12a2 2 0 01-2 2h-12a2 2 0 01-2-2V6zM9.5 4v16"/></g><defs><clipPath id="baclip0_5001_48848"><path fill="#fff" transform="translate(.5)" d="M0 0h24v24H0z"/></clipPath></defs></svg><svg viewBox="0 0 16 16" id="heart" xmlns="http://www.w3.org/2000/svg"><path fill-rule="evenodd" clip-rule="evenodd" d="M5.607 3.34a2.667 2.667 0 00-2.143 4.563l.005.004 4.53 4.488 4.531-4.488a.66.66 0 01.043-.038A2.67 2.67 0 0012.421 4a2.667 2.667 0 00-3.889.403.667.667 0 01-1.068-.003 2.667 2.667 0 00-1.857-1.06zm7.816 5.56l-4.954 4.907a.667.667 0 01-.939 0l-4.998-4.95a4 4 0 015.47-5.836 4 4 0 015.465 5.84.67.67 0 01-.044.04z"/></svg><svg fill="none" viewBox="0 0 24 24" id="home" xmlns="http://www.w3.org/2000/svg"><g clip-path="url(#bcclip0_1165_31576)"><path d="M5 12H3l9-9 9 9h-2M5 12v7a2 2 0 002 2h10a2 2 0 002-2v-7"/><path d="M9 21v-6a2 2 0 012-2h2a2 2 0 012 2v6"/></g><defs><clipPath id="bcclip0_1165_31576"><path fill="#fff" d="M0 0h24v24H0z"/></clipPath></defs></svg><svg viewBox="0 0 16 17" id="image" xmlns="http://www.w3.org/2000/svg"><g fill-rule="evenodd" clip-rule="evenodd"><path d="M9.332 5.835c0-.369.299-.667.667-.667h.006a.667.667 0 010 1.333H10a.667.667 0 01-.667-.666z"/><path d="M3.999 3.165A1.333 1.333 0 002.665 4.5v8A1.333 1.333 0 004 13.832h4.333a.667.667 0 010 1.333H3.999A2.667 2.667 0 011.332 12.5v-8a2.667 2.667 0 012.667-2.667h8a2.667 2.667 0 012.666 2.667v4.333a.667.667 0 01-1.333 0V4.499a1.333 1.333 0 00-1.333-1.334h-8z"/><path d="M5.798 8.308L2.47 11.637a.667.667 0 01-.943-.943L4.861 7.36l.009-.01c.41-.393.914-.632 1.462-.632.549 0 1.053.239 1.462.633l.01.009 2.666 2.666a.667.667 0 11-.943.943L6.866 8.308c-.208-.198-.393-.256-.534-.256-.141 0-.326.058-.534.256z"/><path d="M10.468 9.643c.29-.276.54-.295.747-.215a.667.667 0 00.482-1.243c-.768-.298-1.556-.077-2.158.501l-.01.01-.666.666a.667.667 0 00.943.943l.662-.662zM10 13.167c0-.368.299-.667.667-.667h4a.667.667 0 010 1.333h-4a.667.667 0 01-.667-.666z"/><path d="M12.667 10.5c.368 0 .666.299.666.667v4a.667.667 0 11-1.333 0v-4c0-.368.299-.667.667-.667z"/></g></svg><svg fill="none" viewBox="0 0 20 20" id="info" xmlns="http://www.w3.org/2000/svg"><path d="M11.094 13.75a.469.469 0 01-.469.469 1.094 1.094 0 01-1.094-1.094V10a.156.156 0 00-.156-.156.469.469 0 010-.938A1.094 1.094 0 0110.469 10v3.125a.156.156 0 00.156.156.469.469 0 01.469.469zM9.688 7.344a.781.781 0 100-1.562.781.781 0 000 1.562zM17.968 10A7.969 7.969 0 1110 2.031 7.978 7.978 0 0117.969 10zm-.937 0A7.031 7.031 0 1010 17.031 7.04 7.04 0 0017.031 10z" fill="#212121"/></svg><svg fill="none" viewBox="0 0 24 24" id="instagram" xmlns="http://www.w3.org/2000/svg"><g clip-path="url(#bfclip0_5001_49149)"><path d="M4 8a4 4 0 014-4h8a4 4 0 014 4v8a4 4 0 01-4 4H8a4 4 0 01-4-4V8z"/><path d="M9 12a3 3 0 106 0 3 3 0 00-6 0zM16.5 7.5v.01"/></g><defs><clipPath id="bfclip0_5001_49149"><path fill="#fff" d="M0 0h24v24H0z"/></clipPath></defs></svg><svg fill="none" viewBox="0 0 24 24" id="linkedin" xmlns="http://www.w3.org/2000/svg"><g clip-path="url(#bgclip0_1165_31564)"><path d="M4 6a2 2 0 012-2h12a2 2 0 012 2v12a2 2 0 01-2 2H6a2 2 0 01-2-2V6zM8 11v5M8 8v.01M12 16v-5"/><path d="M16 16v-3a2 2 0 00-4 0"/></g><defs><clipPath id="bgclip0_1165_31564"><path fill="#fff" d="M0 0h24v24H0z"/></clipPath></defs></svg><svg fill="none" viewBox="0 0 24 24" id="load" xmlns="http://www.w3.org/2000/svg"><g clip-path="url(#bhclip0_38_14197)"><path d="M19.932 13.04a8 8 0 11-9.925-8.788c3.9-1 7.935 1.007 9.425 4.747"/><path d="M20 4v5h-5"/></g><defs><clipPath id="bhclip0_38_14197"><path fill="#fff" d="M0 0h24v24H0z"/></clipPath></defs></svg><svg viewBox="0 0 20 20" id="menu" xmlns="http://www.w3.org/2000/svg"><path fill-rule="evenodd" d="M19 4a1 1 0 01-1 1H2a1 1 0 010-2h16a1 1 0 011 1zm0 6a1 1 0 01-1 1H2a1 1 0 110-2h16a1 1 0 011 1zm-1 7a1 1 0 100-2H2a1 1 0 100 2h16z"/></svg><svg data-name="Layer 1" viewBox="0 0 24 24" id="mode1" xmlns="http://www.w3.org/2000/svg"><path d="M13 24a1 1 0 01-1-1V2.011L6.785 8.619A1.001 1.001 0 015.214 7.38S10.557.613 10.585.586A2 2 0 0114 2v21a1 1 0 01-1 1z"/></svg><svg data-name="Layer 1" viewBox="0 0 24 24" id="mode2" xmlns="http://www.w3.org/2000/svg"><path d="M20 24H6.501a2.494 2.494 0 01-2.198-1.311 2.517 2.517 0 01.113-2.579c1.232-1.877 3.602-3.06 6.11-4.312 4.085-2.04 7.944-3.965 7.422-8.681-.317-2.87-2.931-5.118-5.95-5.118-3.309 0-6 2.691-6 6a1 1 0 01-2 0C4 3.589 7.589 0 12 0c4.09 0 7.502 2.966 7.938 6.898.675 6.102-4.422 8.646-8.517 10.69-2.261 1.128-4.396 2.194-5.332 3.62a.505.505 0 00-.025.531.48.48 0 00.438.26h13.499a1 1 0 010 2z"/></svg><svg data-name="Layer 1" viewBox="0 0 24 24" id="mode3" xmlns="http://www.w3.org/2000/svg"><path d="M15.893 9.82A5.488 5.488 0 0018 5.5C18 2.467 15.532 0 12.5 0H5a1 1 0 000 2h7.5C14.43 2 16 3.57 16 5.5S14.43 9 12.5 9H7a1 1 0 000 2h5.5c3.032 0 5.5 2.467 5.5 5.5S15.532 22 12.5 22H5a1 1 0 000 2h7.5c4.136 0 7.5-3.364 7.5-7.5 0-2.914-1.674-5.439-4.107-6.68z"/></svg><svg data-name="Layer 1" viewBox="0 0 24 24" id="mode4" xmlns="http://www.w3.org/2000/svg"><path d="M19 0a1 1 0 00-1 1v12H9c-1.654 0-3-1.346-3-3V1a1 1 0 10-2 0v9c0 2.757 2.243 5 5 5h9v8a1 1 0 102 0V1a1 1 0 00-1-1z"/></svg><svg data-name="Layer 1" viewBox="0 0 24 24" id="mode5" xmlns="http://www.w3.org/2000/svg"><path d="M12.5 24H5a1 1 0 110-2h7.5c1.5 0 2.902-.593 3.947-1.67s1.596-2.497 1.55-4c-.088-2.939-2.676-5.33-5.77-5.33H5a1 1 0 01-1-1V4c0-2.206 1.794-4 4-4h10a1 1 0 110 2H8c-1.103 0-2 .897-2 2v5h6.228c4.164 0 7.649 3.262 7.77 7.271a7.444 7.444 0 01-2.114 5.452A7.44 7.44 0 0112.501 24z"/></svg><svg viewBox="0 0 25 24" id="nav" xmlns="http://www.w3.org/2000/svg"><g clip-path="url(#boclip0_38_32796)"><path d="M12.5 2a10 10 0 01.324 19.995L12.5 22l-.324-.005A10 10 0 0112.5 2zm.707 5.293a1 1 0 00-1.414 0l-4 4a1.05 1.05 0 00-.083.094l-.064.092-.052.098-.044.11-.03.112-.017.126L7.5 12l.004.09.007.058.025.118.035.105.054.113.043.07.071.095.054.058 4 4 .094.083a1 1 0 001.32-1.497L10.915 13H16.5l.117-.007A1 1 0 0016.5 11h-5.586l2.293-2.293.083-.094a1 1 0 00-.083-1.32z"/></g><defs><clipPath id="boclip0_38_32796"><path fill="#fff" transform="translate(.5)" d="M0 0h24v24H0z"/></clipPath></defs></svg><svg viewBox="0 0 44 44" id="nav2" xmlns="http://www.w3.org/2000/svg"><rect x="44" y="44" width="44" height="44" rx="12" transform="rotate(-180 44 44)" fill="none"/><path d="M18.476 22l9.075 9.075-2.592 2.59L13.292 22l11.667-11.667 2.592 2.594L18.476 22z"/></svg><svg fill="none" viewBox="0 0 121 24" id="next" xmlns="http://www.w3.org/2000/svg"><path d="M115 8l4 4M115 16l4-4M2 12h115" stroke="#000" stroke-width="2" stroke-linecap="round" stroke-linejoin="round"/></svg><svg viewBox="0 0 256 256" id="outfits" xmlns="http://www.w3.org/2000/svg"><path fill="#fff" d="M125.1 59.5c-8.6 1.3-15.1 8.3-15.9 16.8-.2 2.9-.1 3.5 1 4.7 2.6 2.8 7.5 1 7.5-2.8 0-1.9 1.4-5.4 2.8-6.9 4.8-5.3 13.8-3.8 16.8 2.7 2.3 5.1.9 8.8-6 15.6-5.1 5.1-7.2 8.6-7.6 12.6-.3 2.4-.3 2.4-3.4 3.1-1.7.4-5 1.7-7.3 2.8-4.4 2.2-9.4 6.8-19 17.5-8.6 9.5-17.2 15-47.2 29.7-21.8 10.7-25.7 12.9-30 16.8-3.4 3.1-5.2 5.9-6.2 10-1.8 6.7.7 12.3 6.3 13.8 3.3.9 219 .9 222.2 0 5.6-1.5 8.1-7.1 6.3-13.8-1-4.1-2.8-6.9-6.2-10-4.3-4-8.2-6.1-30-16.8-30-14.8-38.7-20.2-47.2-29.7-9.6-10.7-14.6-15.3-19-17.5-2.4-1.1-5.7-2.4-7.6-2.8-1.8-.4-3.4-.9-3.4-1.1 0-1.8 2.4-5.3 6.9-9.9 6.7-6.9 7.8-9.1 7.8-16.1 0-4.3-.2-5.6-1.4-8-3.7-7.6-12-12-20.2-10.7zm12.3 55.5c4.5 2.1 8 5.1 14.2 12.3 11.5 13.5 23.2 21.4 51.2 34.7 24 11.4 30.3 15.1 32.8 19.4 1.1 2 2 6.1 1.3 6.1-.1 0-19.5-9.6-43.2-21.3-23.6-11.7-44.7-22-47-22.9-12.8-5.1-25.3-5-38.2.3-2.1.8-23 11-46.5 22.7s-42.8 21.2-43 21.2c-.7 0 .1-4.1 1.3-6.1 2.5-4.3 9.2-8.2 33.4-19.6 26.9-12.7 38.7-20.7 49.4-33 11.3-13.2 15.2-15.4 25.8-15.2 4.4.1 6.3.5 8.5 1.4zm-.1 34.6c6.1 1.6 7.5 2.2 45.3 21l34.2 16.9H39.3l34.2-16.9c18.8-9.4 35.7-17.6 37.6-18.4 8.7-3.8 18-4.7 26.2-2.6z"/></svg><svg fill="none" viewBox="0 0 24 24" id="pinterest" xmlns="http://www.w3.org/2000/svg"><g clip-path="url(#bsclip0_5001_49144)"><path d="M8 20l4-9M10.7 13.998c.437 1.263 1.43 2 2.55 2 2.071 0 3.75-1.554 3.75-4a4.999 4.999 0 00-7.864-4.104A5 5 0 007.3 13.698"/><path d="M3 12a9 9 0 1018.001 0A9 9 0 003 12z"/></g><defs><clipPath id="bsclip0_5001_49144"><path fill="#fff" d="M0 0h24v24H0z"/></clipPath></defs></svg><svg viewBox="0 0 23 23" id="pinterest_new" xmlns="http://www.w3.org/2000/svg"><path d="M8.62 19.835c.88.266 1.77.422 2.713.422a9.167 9.167 0 10-9.166-9.167c0 3.896 2.447 7.242 5.903 8.562-.082-.715-.165-1.898 0-2.714l1.054-4.528s-.266-.532-.266-1.375c0-1.265.789-2.21 1.687-2.21.788 0 1.155.578 1.155 1.32 0 .79-.522 1.917-.788 2.998-.156.899.476 1.687 1.393 1.687 1.632 0 2.897-1.742 2.897-4.198 0-2.2-1.577-3.704-3.841-3.704-2.585 0-4.107 1.925-4.107 3.951 0 .789.257 1.586.679 2.109.082.055.082.128.055.265l-.266 1c0 .155-.101.21-.257.1-1.173-.513-1.852-2.181-1.852-3.529 0-2.896 2.054-5.527 6.014-5.527 3.153 0 5.61 2.264 5.61 5.27 0 3.154-1.953 5.684-4.749 5.684-.889 0-1.76-.477-2.071-1.036l-.614 2.172c-.211.789-.789 1.843-1.183 2.476v-.028z"/></svg><svg fill="none" viewBox="0 0 121 24" id="prev" xmlns="http://www.w3.org/2000/svg"><g opacity=".2" stroke="#000" stroke-width="2" stroke-linecap="round" stroke-linejoin="round"><path d="M119 12H4M6 8l-4 4M6 16l-4-4"/></g></svg><svg fill="none" viewBox="0 0 24 24" id="price" xmlns="http://www.w3.org/2000/svg"><g clip-path="url(#bvclip0_5001_48391)" stroke="#000" stroke-width="2" stroke-linecap="round" stroke-linejoin="round"><path d="M3 12a9 9 0 1018.001 0A9 9 0 003 12z"/><path d="M13.867 9.75c-.246-.48-.708-.77-1.2-.75h-1.334C10.597 9 10 9.67 10 10.5c0 .827.597 1.499 1.333 1.499h1.334c.736 0 1.333.67 1.333 1.5 0 .828-.597 1.499-1.333 1.499h-1.334c-.492.019-.954-.27-1.2-.75M12 7v2M12 15v2"/></g><defs><clipPath id="bvclip0_5001_48391"><path fill="#fff" d="M0 0h24v24H0z"/></clipPath></defs></svg><svg fill="none" viewBox="0 0 61 60" id="progress" xmlns="http://www.w3.org/2000/svg"><path d="M31 55.5c34-2 33-49 0-51" stroke="#3D71F4" stroke-width="7" stroke-linecap="round"/></svg><svg viewBox="0 0 24 25" id="question" xmlns="http://www.w3.org/2000/svg"><g fill-rule="evenodd" clip-rule="evenodd"><path d="M4.929 5.429A10 10 0 1119.07 19.57 10 10 0 014.93 5.43zM12 4.5a8 8 0 100 16 8 8 0 000-16z"/><path d="M12 15.5a1 1 0 011 1v.01a1 1 0 11-2 0v-.01a1 1 0 011-1zM11.427 8.558a3 3 0 11.57 5.942 1 1 0 01.006-2 1 1 0 00.457-1.891l-.002-.001a.98.98 0 00-1.195.239 1 1 0 11-1.526-1.292 2.98 2.98 0 011.69-.997z"/></g></svg><svg fill="none" viewBox="0 0 24 24" id="quote" xmlns="http://www.w3.org/2000/svg"><g clip-path="url(#byclip0_1029_60728)" stroke="#000" stroke-width="2" stroke-linecap="round" stroke-linejoin="round"><path d="M10 11H6a1 1 0 01-1-1V7a1 1 0 011-1h3a1 1 0 011 1v6c0 2.667-1.333 4.333-4 5M19 11h-4a1 1 0 01-1-1V7a1 1 0 011-1h3a1 1 0 011 1v6c0 2.667-1.333 4.333-4 5"/></g><defs><clipPath id="byclip0_1029_60728"><path fill="#fff" d="M0 0h24v24H0z"/></clipPath></defs></svg><svg fill="none" viewBox="0 0 20 20" id="radio" xmlns="http://www.w3.org/2000/svg"><path d="M15 1.34A10 10 0 11.005 10.324L0 10l.005-.324A10 10 0 0115 1.34zm-1.293 5.953a1 1 0 00-1.32-.083l-.094.083L9 10.585 7.707 9.293l-.094-.083a1 1 0 00-1.403 1.403l.083.094 2 2 .094.083a1 1 0 001.226 0l.094-.083 4-4 .083-.094a1 1 0 00-.083-1.32z" fill="#1890FF"/></svg><svg fill="none" viewBox="0 0 24 24" id="resize" xmlns="http://www.w3.org/2000/svg"><g clip-path="url(#caclip0_38_32785)"><path d="M16 4h4v4M14 10l6-6M8 20H4v-4M4 20l6-6M16 20h4v-4M14 14l6 6M8 4H4v4M4 4l6 6"/></g><defs><clipPath id="caclip0_38_32785"><path fill="#fff" d="M0 0h24v24H0z"/></clipPath></defs></svg><svg fill="none" viewBox="0 0 25 24" id="sale" xmlns="http://www.w3.org/2000/svg"><g opacity=".8" clip-path="url(#cbclip0_5001_51149)" stroke="#212121" stroke-width="2" stroke-linecap="round" stroke-linejoin="round"><path d="M9.5 15l6-6"/><path d="M10 10a.5.5 0 100-1 .5.5 0 000 1zM15 15a.5.5 0 100-1 .5.5 0 000 1z" fill="#212121"/><path d="M5.5 7.2A2.2 2.2 0 017.7 5h1a2.2 2.2 0 001.55-.64l.7-.7a2.2 2.2 0 013.12 0l.7.7c.412.41.97.64 1.55.64h1a2.2 2.2 0 012.2 2.2v1c0 .581.23 1.139.64 1.55l.7.7a2.2 2.2 0 010 3.12l-.7.7a2.2 2.2 0 00-.64 1.55v1a2.2 2.2 0 01-2.2 2.2h-1a2.2 2.2 0 00-1.55.64l-.7.7a2.202 2.202 0 01-3.12 0l-.7-.7a2.2 2.2 0 00-1.55-.64h-1a2.2 2.2 0 01-2.2-2.2v-1a2.2 2.2 0 00-.64-1.55l-.7-.7a2.2 2.2 0 010-3.12l.7-.7A2.2 2.2 0 005.5 8.2v-1z"/></g><defs><clipPath id="cbclip0_5001_51149"><path fill="#fff" transform="translate(.5)" d="M0 0h24v24H0z"/></clipPath></defs></svg><svg fill="none" viewBox="0 0 24 24" id="sales" xmlns="http://www.w3.org/2000/svg"><g clip-path="url(#ccclip0_5001_39543)" stroke="#000" stroke-width="2" stroke-linecap="round" stroke-linejoin="round"><path d="M9 15l6-6"/><path d="M9.5 10a.5.5 0 100-1 .5.5 0 000 1zM14.5 15a.5.5 0 100-1 .5.5 0 000 1z" fill="#000"/><path d="M3 12a9 9 0 1018.001 0A9 9 0 003 12z"/></g><defs><clipPath id="ccclip0_5001_39543"><path fill="#fff" d="M0 0h24v24H0z"/></clipPath></defs></svg><svg fill="none" viewBox="0 0 24 24" id="search" xmlns="http://www.w3.org/2000/svg"><g clip-path="url(#cdclip0_1_32046)"><path d="M3 10a7 7 0 1014 0 7 7 0 00-14 0zM21 21l-6-6"/></g><defs><clipPath id="cdclip0_1_32046"><path fill="#fff" d="M0 0h24v24H0z"/></clipPath></defs></svg><svg fill="none" viewBox="0 0 24 24" id="sizes" xmlns="http://www.w3.org/2000/svg"><g clip-path="url(#ceclip0_5001_35402)" stroke="#000" stroke-width="2" stroke-linecap="round" stroke-linejoin="round"><path d="M17 3l4 4L7 21l-4-4L17 3zM16 7l-1.5-1.5M13 10l-1.5-1.5M10 13l-1.5-1.5M7 16l-1.5-1.5"/></g><defs><clipPath id="ceclip0_5001_35402"><path fill="#fff" d="M0 0h24v24H0z"/></clipPath></defs></svg><svg fill="none" viewBox="0 0 24 24" id="sort" xmlns="http://www.w3.org/2000/svg"><g clip-path="url(#cfclip0_5001_34947)" stroke="#000" stroke-width="2" stroke-linecap="round" stroke-linejoin="round"><path d="M3 9l4-4m0 0l4 4M7 5v14M21 15l-4 4m0 0l-4-4m4 4V5"/></g><defs><clipPath id="cfclip0_5001_34947"><path fill="#fff" d="M0 0h24v24H0z"/></clipPath></defs></svg><svg fill="none" viewBox="0 0 24 24" id="tiktok" xmlns="http://www.w3.org/2000/svg"><g clip-path="url(#cgclip0_5001_49154)"><path d="M21 7.917v4.034A9.949 9.949 0 0116 10v4.5a6.5 6.5 0 11-8-6.326V12.5a2.5 2.5 0 104 2V3h4.083A6.005 6.005 0 0021 7.917z"/></g><defs><clipPath id="cgclip0_5001_49154"><path fill="#fff" d="M0 0h24v24H0z"/></clipPath></defs></svg><svg fill="none" viewBox="0 0 24 24" id="twitter" xmlns="http://www.w3.org/2000/svg"><g clip-path="url(#chclip0_1165_31557)"><path d="M22 4.009c-1 .49-1.98.689-3 .99-1.121-1.265-2.783-1.335-4.38-.737S11.977 6.322 12 7.999v1c-3.245.083-6.135-1.395-8-4 0 0-4.182 7.433 4 11-1.872 1.247-3.739 2.088-6 2 3.308 1.803 6.913 2.423 10.034 1.517 3.58-1.04 6.522-3.723 7.651-7.742a13.84 13.84 0 00.497-3.753c0-.249 1.51-2.772 1.818-4.013v.001z"/></g><defs><clipPath id="chclip0_1165_31557"><path fill="#fff" d="M0 0h24v24H0z"/></clipPath></defs></svg><svg fill="none" viewBox="0 0 33 32" id="user" xmlns="http://www.w3.org/2000/svg"><rect x=".921" y=".421" width="31.158" height="31.158" rx="15.579"/><g clip-path="url(#ciclip0_5001_46384)"><path d="M13.13 11.79a3.368 3.368 0 106.737 0 3.368 3.368 0 00-6.736 0zM11.447 23.578v-1.684a3.368 3.368 0 013.369-3.369h3.368a3.368 3.368 0 013.368 3.369v1.684"/></g><defs><clipPath id="ciclip0_5001_46384"><path fill="#fff" transform="translate(6.395 5.895)" d="M0 0h20.21v20.21H0z"/></clipPath></defs></svg><svg fill="none" viewBox="0 0 25 24" id="user2" xmlns="http://www.w3.org/2000/svg"><g clip-path="url(#cjclip0_3340_199349)" stroke="#212121" stroke-width="2.009" stroke-linecap="round" stroke-linejoin="round"><path d="M8.5 7a4 4 0 108 0 4 4 0 00-8 0zM6.5 21v-2a4 4 0 014-4h4a4 4 0 014 4v2"/></g><defs><clipPath id="cjclip0_3340_199349"><path fill="#fff" transform="translate(.5)" d="M0 0h24v24H0z"/></clipPath></defs></svg><svg fill="none" viewBox="0 0 24 24" id="x" xmlns="http://www.w3.org/2000/svg"><g clip-path="url(#ckclip0_5001_49140)"><path d="M4 4l11.733 16H20L8.267 4H4zM4 20l6.768-6.768m2.46-2.46L20 4"/></g><defs><clipPath id="ckclip0_5001_49140"><path fill="#fff" d="M0 0h24v24H0z"/></clipPath></defs></svg><svg fill="none" viewBox="0 0 24 24" id="youtube" xmlns="http://www.w3.org/2000/svg"><g clip-path="url(#clclip0_1165_31560)"><path d="M3 9a4 4 0 014-4h10a4 4 0 014 4v6a4 4 0 01-4 4H7a4 4 0 01-4-4V9z"/><path d="M10 9l5 3-5 3V9z"/></g><defs><clipPath id="clclip0_1165_31560"><path fill="#fff" d="M0 0h24v24H0z"/></clipPath></defs></svg></svg>