<svg width="232" height="40" viewBox="0 0 232 40" fill="none" xmlns="http://www.w3.org/2000/svg">
<g clip-path="url(#clip0_534_4387)">
<path d="M16.866 26.7529C18.2623 20.7278 24.4152 16.487 25.1916 16.966C25.968 17.4451 25.5782 19.5916 25.5782 19.5916C30.5282 16.2505 29.2546 12.0864 29.2546 12.0864C19.054 11.4293 16.866 26.7529 16.866 26.7529Z" fill="black"/>
<path d="M28.9692 21.4219C27.4287 20.8261 25.6641 20.952 24.1297 21.5693C22.5984 22.1865 21.2819 23.2644 20.1956 24.5111C18.9189 25.9759 17.9124 27.7356 17.6454 29.6579C17.3754 31.5803 17.9277 33.6746 19.3486 34.9982C20.2355 35.8242 21.4323 36.3156 22.6445 36.3493C23.8566 36.3831 25.1793 36.1681 26.149 35.2346C27.576 33.8619 27.9719 30.3089 24.2893 29.2096C24.5318 29.3201 24.9338 29.5412 25.2867 29.965C25.434 30.1431 26.0846 30.9784 25.8912 32.0808C25.6979 33.1894 24.7987 33.7483 24.5624 33.8957C23.1539 34.7678 20.9597 34.2642 20.0759 32.8608C19.4376 31.8474 19.5143 30.5515 19.8611 29.403C20.6006 26.9494 24.7097 24.3791 27.8522 25.3311C29.718 25.8961 30.252 27.5114 29.9359 29.2096C30.2704 29.0315 31.4058 28.3774 31.8999 27.0016C32.7285 24.6893 31.1235 22.2541 28.9692 21.4188V21.4219Z" fill="black"/>
<path d="M16.0251 32.1361C16.0251 32.1361 15.6446 33.8496 14.9786 34.9767C14.3127 36.1037 14.012 38.3392 16.0251 39.6106C18.0382 38.3423 17.7344 36.1067 17.0716 34.9767C16.4056 33.8496 16.0251 32.1361 16.0251 32.1361Z" fill="black"/>
<path d="M12.7047 9.86925C15.3039 12.3505 16.022 22.7853 16.022 22.7853C16.022 22.7853 16.7401 12.3505 19.3394 9.86925C19.3087 9.99208 18.4218 13.4683 18.9865 16.1922C20.3551 11.073 23.5006 7.16689 23.5006 7.16689C21.5366 7.01642 19.4652 8.80059 19.4652 8.80059C19.545 4.0039 16.022 0.536888 16.022 0.536888C16.022 0.536888 12.4991 4.00083 12.5788 8.80059C12.5788 8.80059 10.5074 7.01642 8.5434 7.16689C8.5434 7.16689 11.6889 11.073 13.0576 16.1922C13.6222 13.4714 12.7354 9.99516 12.7047 9.86925ZM16.0251 6.26098C16.6082 6.26098 17.0531 6.77996 16.9611 7.35421L16.5775 9.86311L16.0251 13.4683L15.4727 9.86925L15.0891 7.35421C15.0001 6.77996 15.442 6.26098 16.0251 6.26098Z" fill="black"/>
<path d="M6.46894 19.5947C6.46894 19.5947 6.0792 17.4451 6.85561 16.9691C7.63201 16.49 13.7819 20.7309 15.1812 26.7559C15.1812 26.7559 12.9932 11.4323 2.79254 12.0895C2.79254 12.0895 1.51593 16.2536 6.46894 19.5947Z" fill="black"/>
<path d="M11.8546 24.5111C10.7683 23.2644 9.45177 22.1865 7.92045 21.5693C6.38912 20.952 4.6215 20.8261 3.08097 21.4219C0.926688 22.2571 -0.678284 24.6923 0.150287 27.0047C0.641293 28.3774 1.77981 29.0345 2.11431 29.2126C1.79822 27.5175 2.33219 25.8992 4.19801 25.3341C7.34044 24.3852 11.4495 26.9525 12.1891 29.4061C12.5359 30.5546 12.6126 31.8474 11.9743 32.8639C11.0936 34.2642 8.89632 34.7709 7.48775 33.8988C7.25145 33.7545 6.3523 33.1956 6.15897 32.0839C5.96563 30.9815 6.61621 30.1462 6.76351 29.9681C7.11335 29.5443 7.51843 29.3201 7.76087 29.2126C4.07833 30.3089 4.47113 33.865 5.90119 35.2377C6.87092 36.1681 8.19357 36.3862 9.40574 36.3524C10.6179 36.3186 11.8117 35.8273 12.7016 35.0012C14.1225 33.6777 14.6748 31.5864 14.4048 29.661C14.1347 27.7386 13.1312 25.976 11.8546 24.5142V24.5111Z" fill="black"/>
<path d="M59.4485 13.327C58.445 12.2522 57.2206 11.3985 55.7813 10.7597C54.342 10.121 52.7002 9.80163 50.8528 9.80163C49.0054 9.80163 47.3636 10.121 45.9244 10.7597C44.4851 11.3985 43.2637 12.2553 42.2572 13.327C41.2537 14.4018 40.4926 15.6086 39.9771 16.9537C39.4615 18.2987 39.2037 19.6653 39.2037 21.0502V21.7842C39.2037 23.1691 39.4554 24.5295 39.9587 25.8592C40.4619 27.1919 41.2077 28.3927 42.1989 29.4675C43.1901 30.5423 44.4053 31.4052 45.8446 32.0562C47.2838 32.7072 48.9533 33.0358 50.8559 33.0358C52.7585 33.0358 54.428 32.7103 55.8672 32.0562C57.3065 31.4052 58.5217 30.5423 59.5129 29.4675C60.5042 28.3957 61.2499 27.1919 61.7532 25.8592C62.2564 24.5295 62.5081 23.1691 62.5081 21.7842V21.0502C62.5081 19.6653 62.2503 18.2987 61.7347 16.9537C61.2192 15.6086 60.4581 14.3987 59.4546 13.327H59.4485ZM57.6778 25.5367C57.0671 26.759 56.1833 27.7324 55.0294 28.451C53.8756 29.1727 52.4824 29.5319 50.8528 29.5319C49.2233 29.5319 47.8332 29.1727 46.6762 28.451C45.5224 27.7324 44.6385 26.759 44.0279 25.5367C43.4172 24.3145 43.1103 22.9419 43.1103 21.4187C43.1103 19.8956 43.4233 18.483 44.0463 17.2608C44.6723 16.0386 45.5684 15.0743 46.7345 14.368C47.9007 13.6617 49.2724 13.3086 50.8498 13.3086C52.4271 13.3086 53.8296 13.6617 54.9834 14.368C56.1373 15.0743 57.0272 16.0386 57.6502 17.2608C58.2762 18.483 58.5862 19.871 58.5862 21.4187C58.5862 22.9664 58.2793 24.3115 57.6686 25.5367H57.6778Z" fill="black"/>
<path d="M74.3198 29.2034H73.4483L67.2309 10.5356H63.1556L70.5698 32.3019H71.5487H73.4207H74.4825H76.2716H77.1277L83.563 10.5356H79.7362L74.3198 29.2034Z" fill="black"/>
<path d="M101.101 11.331C99.5666 10.3114 97.6179 9.80167 95.255 9.80167C93.4352 9.80167 91.8547 10.121 90.5106 10.7598C89.1665 11.3985 88.0587 12.2553 87.1902 13.327C86.3217 14.4018 85.6773 15.6025 85.2569 16.9353C84.8364 18.268 84.6247 19.6407 84.6247 21.0533V21.7873C84.6247 23.1722 84.8334 24.5326 85.2569 25.8623C85.6773 27.1951 86.3217 28.3958 87.1902 29.4706C88.0587 30.5454 89.1849 31.4083 90.572 32.0593C91.956 32.7103 93.6009 33.0389 95.5005 33.0389C97.2128 33.0389 98.7442 32.7533 100.104 32.1821C101.46 31.611 102.589 30.7818 103.485 29.6947C104.382 28.6077 104.98 27.3179 105.278 25.8224H101.61C101.393 26.8296 100.748 27.711 99.6771 28.4725C98.603 29.2341 97.2128 29.6149 95.5005 29.6149C93.7881 29.6149 92.5268 29.2556 91.4681 28.534C90.4093 27.8154 89.6268 26.8358 89.1266 25.5982C88.7031 24.5603 88.4637 23.4117 88.3962 22.1527H105.646V20.3992C105.646 18.5782 105.271 16.8677 104.526 15.2617C103.777 13.6587 102.638 12.3474 101.104 11.3279L101.101 11.331ZM91.4067 14.2851C92.4255 13.5788 93.7083 13.2257 95.255 13.2257C96.8016 13.2257 97.9831 13.5389 98.962 14.1623C99.941 14.7888 100.674 15.664 101.162 16.791C101.475 17.5126 101.687 18.3233 101.801 19.2169H88.5527C88.6786 18.4861 88.8688 17.8074 89.1266 17.1779C89.6299 15.9557 90.3879 14.9914 91.4067 14.2851Z" fill="black"/>
<path d="M114.177 12.5132C113.164 13.5849 112.523 15.1019 112.244 17.0581V10.5356H109.147V32.3019H113.057V20.522C113.057 18.3479 113.64 16.6834 114.809 15.5288C115.975 14.3742 117.648 13.7968 119.821 13.7968H121.205V10.2899H120.471C117.673 10.2899 115.577 11.03 114.177 12.5101V12.5132Z" fill="black"/>
<path d="M152.69 11.0638C151.549 10.2745 150.125 9.88148 148.413 9.88148H148.25C146.538 9.88148 145.12 10.2745 143.993 11.0638C142.867 11.853 142.017 12.9861 141.446 14.4663C141.345 14.7273 141.259 15.0006 141.176 15.2801C141.097 15.0006 141.014 14.7242 140.919 14.4663C140.375 12.9861 139.541 11.8499 138.414 11.0638C137.288 10.2745 135.867 9.88148 134.158 9.88148H133.995C132.283 9.88148 130.871 10.2745 129.76 11.0638C128.647 11.853 127.812 12.9861 127.256 14.4663C127.124 14.8164 127.011 15.1849 126.91 15.5687V10.5325H123.813V32.2988H127.723V19.2538C127.723 17.4327 128.211 16.014 129.19 14.9945C130.169 13.9749 131.458 13.4652 133.059 13.4652C134.661 13.4652 135.815 13.9473 136.684 14.9116C137.552 15.8758 137.988 17.2423 137.988 19.0081V32.2957H141.898V19.2507C141.898 17.4297 142.385 16.0109 143.364 14.9914C144.343 13.9719 145.632 13.4621 147.234 13.4621C148.836 13.4621 149.99 13.9442 150.858 14.9085C151.727 15.8727 152.163 17.2393 152.163 19.005V32.2927H156.072V19.8618C156.072 17.7429 155.793 15.9434 155.238 14.4601C154.679 12.98 153.832 11.8438 152.69 11.0576V11.0638Z" fill="black"/>
<path d="M179.819 13.327C178.812 12.2522 177.591 11.3985 176.151 10.7598C174.712 10.121 173.07 9.80167 171.223 9.80167C169.375 9.80167 167.734 10.121 166.294 10.7598C164.855 11.3985 163.634 12.2553 162.627 13.327C161.624 14.4018 160.863 15.6087 160.347 16.9537C159.832 18.2988 159.574 19.6653 159.574 21.0502V21.7842C159.574 23.1691 159.825 24.5295 160.329 25.8592C160.832 27.192 161.578 28.3927 162.569 29.4675C163.56 30.5423 164.775 31.4052 166.215 32.0562C167.654 32.7073 169.323 33.0358 171.226 33.0358C173.129 33.0358 174.798 32.7103 176.237 32.0562C177.676 31.4052 178.892 30.5423 179.883 29.4675C180.874 28.3958 181.62 27.192 182.123 25.8592C182.626 24.5295 182.878 23.1691 182.878 21.7842V21.0502C182.878 19.6653 182.62 18.2988 182.105 16.9537C181.589 15.6087 180.828 14.3988 179.825 13.327H179.819ZM178.048 25.5368C177.437 26.759 176.553 27.7325 175.399 28.451C174.246 29.1727 172.852 29.532 171.223 29.532C169.593 29.532 168.2 29.1727 167.046 28.451C165.892 27.7325 165.009 26.759 164.398 25.5368C163.787 24.3146 163.48 22.9419 163.48 21.4188C163.48 19.8956 163.793 18.483 164.416 17.2608C165.039 16.0386 165.938 15.0743 167.105 14.368C168.271 13.6617 169.642 13.3086 171.22 13.3086C172.797 13.3086 174.2 13.6617 175.353 14.368C176.507 15.0743 177.397 16.0386 178.02 17.2608C178.646 18.483 178.956 19.871 178.956 21.4188C178.956 22.9665 178.649 24.3115 178.039 25.5368H178.048Z" fill="black"/>
<path d="M203.362 13.8245C202.518 12.4886 201.459 11.4906 200.186 10.8396C198.826 10.1456 197.32 9.80163 195.666 9.80163C194.012 9.80163 192.658 10.0934 191.369 10.6768C190.08 11.2603 188.966 12.071 188.03 13.1028C187.094 14.1346 186.367 15.3323 185.852 16.6896C185.336 18.05 185.078 19.5025 185.078 21.0502V21.7841C185.078 23.3595 185.342 24.8274 185.873 26.1878C186.404 27.5482 187.15 28.7427 188.113 29.7745C189.077 30.8064 190.212 31.6079 191.514 32.179C192.818 32.7502 194.242 33.0358 195.791 33.0358C197.341 33.0358 198.894 32.6888 200.293 31.9979C201.693 31.3038 202.853 30.1922 203.776 28.6567C203.924 28.4111 204.056 28.1501 204.185 27.8798V32.3049H207.281V2.54824H203.371V13.8275L203.362 13.8245ZM203.525 22.1527C203.525 23.6758 203.199 24.9994 202.546 26.1264C201.895 27.2534 201.024 28.1163 199.937 28.7151C198.851 29.3139 197.642 29.6118 196.313 29.6118C194.902 29.6118 193.637 29.2801 192.526 28.6138C191.412 27.9474 190.544 26.9985 189.918 25.7609C189.292 24.5234 188.982 23.077 188.982 21.4187C188.982 19.7604 189.289 18.3202 189.899 17.098C190.51 15.8758 191.366 14.9238 192.465 14.2452C193.563 13.5665 194.834 13.2256 196.273 13.2256C197.577 13.2256 198.777 13.5051 199.879 14.0609C200.978 14.6167 201.862 15.4213 202.527 16.4654C203.193 17.5126 203.525 18.7808 203.525 20.2764V22.1527Z" fill="black"/>
<path d="M232.12 20.3992C232.12 18.5782 231.745 16.8677 231 15.2616C230.254 13.6586 229.112 12.3474 227.578 11.3279C226.044 10.3083 224.095 9.79856 221.732 9.79856C219.912 9.79856 218.332 10.1179 216.988 10.7567C215.643 11.3954 214.536 12.2522 213.667 13.3239C212.799 14.3987 212.154 15.5994 211.734 16.9322C211.313 18.2649 211.102 19.6376 211.102 21.0502V21.7842C211.102 23.1691 211.31 24.5295 211.734 25.8592C212.154 27.1919 212.799 28.3927 213.667 29.4675C214.536 30.5423 215.662 31.4052 217.049 32.0562C218.433 32.7072 220.078 33.0358 221.977 33.0358C223.69 33.0358 225.221 32.7502 226.581 32.179C227.937 31.6079 229.066 30.7787 229.962 29.6916C230.858 28.6045 231.457 27.3148 231.755 25.8193H228.087C227.869 26.8265 227.225 27.7078 226.154 28.4694C225.08 29.231 223.69 29.6118 221.977 29.6118C220.265 29.6118 219.004 29.2525 217.945 28.5308C216.886 27.8123 216.104 26.8327 215.604 25.5951C215.18 24.5571 214.941 23.4086 214.873 22.1496H232.123V20.3961L232.12 20.3992ZM217.884 14.2851C218.902 13.5788 220.185 13.2256 221.732 13.2256C223.279 13.2256 224.46 13.5389 225.439 14.1623C226.418 14.7887 227.151 15.6639 227.639 16.7909C227.952 17.5126 228.164 18.3233 228.278 19.2169H215.03C215.155 18.486 215.346 17.8074 215.604 17.1779C216.107 15.9556 216.865 14.9914 217.884 14.2851Z" fill="black"/>
</g>
<defs>
<clipPath id="clip0_534_4387">
<rect width="232" height="39" fill="white" transform="translate(0 0.5)"/>
</clipPath>
</defs>
</svg>
